<?xml version="1.0" encoding="utf-8"?>
<!-- Generator: Adobe Illustrator 23.0.0, SVG Export Plug-In . SVG Version: 6.00 Build 0)  -->
<svg version="1.1" id="图层_1" xmlns="http://www.w3.org/2000/svg" xmlns:xlink="http://www.w3.org/1999/xlink" x="0px" y="0px"
	 viewBox="0 0 841.9 595.3" style="enable-background:new 0 0 841.9 595.3;" xml:space="preserve">
<style type="text/css">
	.st0{fill:#0A0B13;}
</style>
<path class="st0" d="M748.4,12.4H90.6C57.7,12.4,31,32.3,31,56.8v490.1c0,24.5,26.7,44.4,59.6,44.4h657.9
	c32.9,0,59.6-19.9,59.6-44.4V56.8C808,32.3,781.3,12.4,748.4,12.4z M356,499C332.8,478.7,73,301.3,42.1,280.4v-1.2
	C56,267,335.4,96.6,356,79.1l21.5,50c-20.1,9.3-239.2,144.8-253,156.5c10.7,9.9,238.7,158.8,253,165.8L356,499z M376.9,299.6
	l-54.7,114.7l-18.5-14.9l129.7-272.2l18.5,14.9l-54.7,114.7l58.2,46.8c7.1,5.7,14.3,11.4,21.4,17.1l58.5,47l-20.4,42.7l-58.3-46.8
	C430,342.3,403.5,320.9,376.9,299.6z M797,302.3c-13.9,12.2-293.4,182.6-314,200.1l-21.5-50c20.2-9.3,239.2-144.8,253.1-156.5
	c-10.7-9.9-238.7-158.8-253.1-165.8L483,82.4c23.3,20.3,283,197.8,314,218.7V302.3z"/>
<path class="st0" d="M490,361.3"/>
</svg>
